# AST/ASF file generated using VICON BodyLanguage
# -----------------------------------------------
:version 1.10
:name VICON
:units
  mass 1.0
  length 0.45
  angle deg
:documentation
   .ast/.asf automatically generated from VICON data using
   VICON BodyBuilder and BodyLanguage model FoxedUp or BRILLIANT.MOD
:root
   order TX TY TZ RX RY RZ
   axis XYZ
   position 0 0 0  
   orientation 0 0 0 
:bonedata
  begin
     id 1 
     name lhipjoint
     direction 0.78388 -0.462562 0.414208 
     length 3.01181 
     axis 0 0 0  XYZ
  end
  begin
     id 2 
     name lfemur
     direction 0.34202 -0.939693 0  
     length 6.04673  
     axis 0 0 20  XYZ
    dof rx ry rz
    limits (-160.0 20.0)
           (-70.0 70.0)
           (-60.0 70.0)
  end
  begin
     id 3 
     name ltibia
     direction 0.34202 -0.939693 0   
     length 7.211   
     axis 0 0 20   XYZ
    dof rx
    limits (-10.0 170.0)
  end
  begin
     id 4 
     name lfoot
     direction 0.121887 -0.334882 0.934344   
     length 2.13567   
     axis -90 7.62852e-016 20   XYZ
    dof rx rz
    limits (-45.0 90.0)
           (-70.0 20.0)
  end
  begin
     id 5 
     name ltoes
     direction 1.53555e-011 -4.2179e-011 1   
     length 1.05957   
     axis -90 7.62852e-016 20   XYZ
    dof rx
    limits (-90.0 20.0)
  end
  begin
     id 6 
     name rhipjoint
     direction -0.769387 -0.475875 0.426129   
     length 2.92756  
     axis 0 0 0  XYZ 
  end
  begin
     id 7 
     name rfemur
     direction -0.34202 -0.939693 0   
     length 6.35468   
     axis 0 0 -20   XYZ
    dof rx ry rz
    limits (-160.0 20.0)
           (-70.0 70.0)
           (-70.0 60.0)
  end
  begin
     id 8 
     name rtibia
     direction -0.34202 -0.939693 0   
     length 7.37886   
     axis 0 0 -20   XYZ
    dof rx
    limits (-10.0 170.0)
 end
 begin
     id 9 
     name rfoot
     direction -0.101763 -0.279592 0.954711   
     length 2.21478  
     axis -90 -7.62852e-016 -20   XYZ
    dof rx rz
    limits (-45.0 90.0)
           (-20.0 70.0)
  end
  begin
     id 10 
     name rtoes
     direction -1.53494e-011 -4.21851e-011 1   
     length 1.10506   
     axis -90 -7.62852e-016 -20   XYZ
    dof rx
    limits (-90.0 20.0)
  end
  begin
     id 11 
     name lowerback
     direction 0.00747405 0.999267 0.0375481   
     length 2.13259   
     axis 0 0 0   XYZ
    dof rx ry rz
    limits (-20.0 45.0)
           (-30.0 30.0)
           (-30.0 30.0)
  end
  begin
     id 12 
     name upperback
     direction 0.00661626 0.996177 0.0871029   
     length 2.10528   
     axis 0 0 0   XYZ
    dof rx ry rz
    limits (-20.0 45.0)
           (-30.0 30.0)
           (-30.0 30.0)
  end
  begin
     id 13 
     name thorax
     direction 0.00320659 0.997679 0.0680167   
     length 2.11338   
     axis 0 0 0   XYZ
    dof rx ry rz
    limits (-20.0 45.0)
           (-30.0 30.0)
           (-30.0 30.0)
  end
  begin
     id 14 
     name lowerneck
     direction 0.0374841 0.973033 0.227602   
     length 1.42765   
     axis 0 0 0   XYZ
    dof rx ry rz
    limits (-20.0 45.0)
           (-30.0 30.0)
           (-30.0 30.0)
  end
  begin
     id 15 
     name upperneck
     direction 0.00481585 0.989155 -0.146795   
     length 1.47593   
     axis 0 0 0   XYZ
    dof rx ry rz
    limits (-20.0 45.0)
           (-30.0 30.0)
           (-30.0 30.0)
  end
  begin
     id 16
     name head
     direction -0.00292522 0.997206 -0.0746423  
     length 1.48116  
     axis 0 0 0   XYZ
    dof rx ry rz
    limits (-20.0 45.0)
           (-30.0 30.0)
           (-30.0 30.0)
  end
  begin
     id 17 
     name lclavicle
     direction 0.951444 0.305606 0.0368784  
     length 3.01855  
     axis 0 0 0   XYZ
    dof ry rz
    limits (-20.0 10.0)
           (0.0 20.0)
  end
  begin
     id 18 
     name lhumerus
     direction 1 -4.48977e-011 2.61664e-027   
     length 5.52731   
     axis 180 -30 -90   XYZ
    dof rx ry rz
    limits (-60.0 90.0)
           (-90.0 90.0)
           (-90.0 90.0)
  end
  begin
     id 19
     name lradius
     direction 1 -4.48944e-011 8.22157e-027   
     length 3.11059   
     axis 180 -30 -90   XYZ
    dof rx
    limits (-10.0 170.0)
  end
  begin
     id 20
     name lwrist
     direction 1 -4.48976e-011 1.5779e-026   
     length 1.5553   
     axis -1.15221e-014 90 90   XYZ
    dof ry
    limits (-180.0 0.0)
 end
  begin
     id 21 
     name lhand
     direction 1 -4.49025e-011 3.1558e-026   
     length 0.419626   
     axis -2.01367e-014 90 90   XYZ
    dof rx rz
    limits (-90.0 90.0)
           (-45.0 45.0)
  end
  begin
     id 22 
     name lfingers
     direction 1 -4.4904e-011 6.31161e-026   
     length 0.338313   
     axis -4.02734e-014 90 90   XYZ
    dof rx
    limits (0.0 90.0)
  end
  begin
     id 23
     name lthumb
     direction 0.707107 -6.35004e-011 0.707107   
     length 0.485752   
     axis -90 45 2.85299e-015   XYZ
    dof rx rz
    limits (-45.0 45.0)
           (-45.0 45.0)
  end
  begin
     id 24 
     name rclavicle
     direction -0.968876 0.223791 0.105816   
     length 3.04177  
     axis 0 0 0   XYZ 
    dof ry rz
    limits (-10.0 20.0)
           (-20.0 0.0)
  end
  begin
     id 25 
     name rhumerus
     direction -1 -4.48962e-011 -1.01384e-027  
     length 5.25396   
     axis 180 30 90   XYZ
    dof rx ry rz
    limits (-90.0 60.0)
           (-90.0 90.0)
           (-90.0 90.0)
  end
  begin
     id 26 
     name rradius
     direction -1 -4.48955e-011 8.88542e-027   
     length 3.10567   
     axis 180 30 90   XYZ
    dof rx
    limits (-10.0 170.0)
  end
  begin
     id 27 
     name rwrist
     direction -1 -4.48994e-011 1.5779e-026   
     length 1.55283   
     axis -1.15221e-014 -90 -90   XYZ
    dof ry
    limits (-180.0 0.0)
  end
  begin
     id 28
     name rhand
     direction -1 -4.48891e-011 3.1558e-026   
     length 0.498676   
     axis -2.01367e-014 -90 -90   XYZ
    dof rx rz
    limits (-90.0 90.0)
           (-45.0 45.0)
  end
  begin
     id 29
     name rfingers
     direction -1 -4.48972e-011 6.31161e-026   
     length 0.402045   
     axis -4.02734e-014 -90 -90   XYZ
    dof rx
    limits (0.0 90.0)
  end
  begin
     id 30
     name rthumb
     direction -0.707107 -6.34849e-011 0.707107   
     length 0.577259   
     axis -90 -45 -2.85299e-015   XYZ
    dof rx rz
    limits (-45.0 45.0)
           (-45.0 45.0)
  end
:hierarchy
  begin
    root lhipjoint rhipjoint lowerback
    lhipjoint lfemur
    lfemur ltibia
    ltibia lfoot
    lfoot ltoes
    rhipjoint rfemur
    rfemur rtibia
    rtibia rfoot
    rfoot rtoes
    lowerback upperback
    upperback thorax
    thorax lowerneck lclavicle rclavicle
    lowerneck upperneck
    upperneck head
    lclavicle lhumerus
    lhumerus lradius
    lradius lwrist
    lwrist lhand lthumb
    lhand lfingers
    rclavicle rhumerus
    rhumerus rradius
    rradius rwrist
    rwrist rhand rthumb
    rhand rfingers
  end

#!OML:ASF H:\Pregnant\Project 1\Capture day 1\Session 1\femalepreg.ASF
:FULLY-SPECIFIED
:DEGREES
48
root 6.80587 15.5863 20.9149 -153.931 -5.11134 -174.744
lowerback -15.7539 0.713888 3.04279
upperback -4.17159 -0.183615 1.23369
thorax 4.39899 -0.321774 -0.476594
lowerneck -12.0267 7.67509 6.21649
upperneck 28.7259 8.46143 -2.22527
head 11.7629 3.60737 -0.835022
rclavicle 3.23025e-015 -1.86858e-014
rhumerus -33.8046 -1.60261 -80.4227
rradius 32.2038
rwrist -6.54374
rhand -16.3238 -18.376
rfingers 7.12502
rthumb 9.88777 -48.1238
lclavicle 3.23025e-015 -1.86858e-014
lhumerus -35.7337 -15.5992 89.9802
lradius 29.9978
lwrist 42.7107
lhand -27.0606 -2.08441
lfingers 7.12502
lthumb -0.478632 27.8948
rfemur -32.9532 12.3532 26.6365
rtibia 27.8432
rfoot -19.123 -10.6235
rtoes -5.45358
lfemur -55.2606 -11.0757 -8.00849
ltibia 37.1129
lfoot -8.67386 4.24019
ltoes -11.4416
49
root 6.77839 15.5863 20.8701 -153.746 -4.82281 -174.563
lowerback -15.7695 0.673888 2.66219
upperback -4.09459 -0.161924 1.18014
thorax 4.48947 -0.305965 -0.313617
lowerneck -12.0174 7.5974 6.22846
upperneck 28.5846 8.30301 -2.06015
head 11.6905 3.56405 -0.799615
rclavicle 6.95746e-015 9.14409e-015
rhumerus -33.8732 -1.49362 -80.5141
rradius 32.2832
rwrist -6.46989
rhand -16.2665 -18.3349
rfingers 7.12502
rthumb 9.94308 -48.0801
lclavicle 6.95746e-015 9.14409e-015
lhumerus -35.5477 -15.8146 89.936
lradius 30.1319
lwrist 42.7651
lhand -27.0998 -2.09089
lfingers 7.12502
lthumb -0.516503 27.8882
rfemur -32.8569 12.4305 26.6809
rtibia 27.5797
rfoot -19.1496 -10.3682
rtoes -5.62412
lfemur -55.2977 -10.724 -8.07639
ltibia 37.2599
lfoot -8.59948 4.09875
ltoes -11.4191
50
root 6.75167 15.5862 20.8248 -153.574 -4.53565 -174.407
lowerback -15.7633 0.623766 2.22587
upperback -4.01289 -0.141545 1.12065
thorax 4.57284 -0.29105 -0.125405
lowerneck -12.0108 7.50888 6.24152
upperneck 28.4437 8.12696 -1.88895
head 11.6183 3.51309 -0.764729
rclavicle -1.18277e-014 -1.78906e-014
rhumerus -33.9498 -1.40297 -80.5952
rradius 32.358
rwrist -6.37634
rhand -16.2082 -18.3091
rfingers 7.12502
rthumb 9.99927 -48.0516
lclavicle -1.18277e-014 -1.78906e-014
lhumerus -35.3484 -16.026 89.8806
lradius 30.2698
lwrist 42.8169
lhand -27.1092 -2.13162
lfingers 7.12502
lthumb -0.525594 27.8475
rfemur -32.7584 12.5754 26.6822
rtibia 27.3461
rfoot -19.1651 -10.2025
rtoes -5.81097
lfemur -55.3151 -10.3755 -8.16549
ltibia 37.4082
lfoot -8.59969 3.99004
ltoes -11.6523
51
root 6.72606 15.5858 20.7788 -153.436 -4.2551 -174.284
lowerback -15.7168 0.560506 1.72432
upperback -3.91897 -0.123194 1.0539
thorax 4.64689 -0.276849 0.0919301
lowerneck -12.0171 7.40935 6.24551
upperneck 28.3038 7.93202 -1.69852
head 11.5475 3.45462 -0.723641
rclavicle -1.18277e-014 1.59028e-014
rhumerus -34.0346 -1.33701 -80.6627
rradius 32.4335
rwrist -6.26459
rhand -16.1512 -18.2898
rfingers 7.12502
rthumb 10.0543 -48.0296
lclavicle -1.18277e-014 1.59028e-014
lhumerus -35.1354 -16.2324 89.8125
lradius 30.4127
lwrist 42.8627
lhand -27.1032 -2.13882
lfingers 7.12502
lthumb -0.519771 27.8403
rfemur -32.6383 12.7986 26.6334
rtibia 27.1511
rfoot -19.1733 -10.1509
rtoes -6.00108
lfemur -55.2864 -10.0356 -8.29233
ltibia 37.5605
lfoot -8.68811 3.88188
ltoes -12.0316
52
root 6.70191 15.5849 20.7328 -153.333 -3.99309 -174.196
lowerback -15.6115 0.48287 1.15933
upperback -3.82211 -0.109835 0.978897
thorax 4.69178 -0.265447 0.335743
lowerneck -12.0172 7.29731 6.24551
upperneck 28.158 7.7148 -1.4879
head 11.4718 3.38767 -0.678052
rclavicle -2.18663e-015 -6.36111e-015
rhumerus -34.1461 -1.2895 -80.7217
rradius 32.5177
rwrist -6.15404
rhand -16.0946 -18.2791
rfingers 7.12502
rthumb 10.1089 -48.0163
lclavicle -2.18663e-015 -6.36111e-015
lhumerus -34.917 -16.43 89.7257
lradius 30.5639
lwrist 42.8986
lhand -27.0635 -2.14401
lfingers 7.12502
lthumb -0.481426 27.8352
rfemur -32.5002 13.091 26.5404
rtibia 27.002
rfoot -19.1773 -10.2155
rtoes -6.20158
lfemur -55.2152 -9.69713 -8.46548
ltibia 37.7194
lfoot -8.86448 3.73846
ltoes -12.4619
53
root 6.67928 15.5838 20.6869 -153.262 -3.74861 -174.139
lowerback -15.4487 0.396412 0.533963
upperback -3.72503 -0.0967239 0.895142
thorax 4.70532 -0.254723 0.60462
lowerneck -12.0133 7.17474 6.23811
upperneck 28.0097 7.47717 -1.2513
head 11.3929 3.31323 -0.624915
rclavicle -2.38542e-015 2.14687e-014
rhumerus -34.2899 -1.26475 -80.7706
rradius 32.6181
rwrist -6.04935
rhand -16.0302 -18.275
rfingers 7.12502
rthumb 10.171 -48.0092
lclavicle -2.38542e-015 2.14687e-014
lhumerus -34.6871 -16.6468 89.626
lradius 30.7204
lwrist 42.9511
lhand -27.0209 -2.13228
lfingers 7.12502
lthumb -0.440274 27.847
rfemur -32.3493 13.4555 26.4044
rtibia 26.896
rfoot -19.1736 -10.3923
rtoes -6.40968
lfemur -55.1114 -9.35189 -8.68655
ltibia 37.8817
lfoot -9.10284 3.5554
ltoes -12.9273
54
root 6.65802 15.582 20.642 -153.206 -3.52589 -174.101
lowerback -15.2355 0.3024 -0.14031
upperback -3.63464 -0.0876954 0.810835
thorax 4.68391 -0.246985 0.89988
lowerneck -11.998 7.04511 6.22122
upperneck 27.8539 7.22708 -0.994574
head 11.308 3.23397 -0.565163
rclavicle -1.98785e-015 -1.59028e-015
rhumerus -34.4642 -1.25158 -80.8047
rradius 32.7354
rwrist -5.95719
rhand -15.9469 -18.2759
rfingers 7.12502
rthumb 10.2514 -48.0061
lclavicle -1.98785e-015 -1.59028e-015
lhumerus -34.4525 -16.855 89.5124
lradius 30.8874
lwrist 43.0029
lhand -26.974 -2.11662
lfingers 7.12502
lthumb -0.394999 27.8628
rfemur -32.2052 13.8744 26.2392
rtibia 26.8275
rfoot -19.1623 -10.6529
rtoes -6.60795
lfemur -54.9926 -8.99236 -8.94277
ltibia 38.0475
lfoot -9.37873 3.33687
ltoes -13.4224
55
root 6.63782 15.5803 20.598 -153.147 -3.32251 -174.073
lowerback -14.9952 0.20814 -0.846313
upperback -3.55323 -0.0784217 0.724738
thorax 4.63775 -0.240181 1.21123
lowerneck -11.976 6.90864 6.2031
upperneck 27.6928 6.96457 -0.72411
head 11.2201 3.14988 -0.502268
rclavicle -3.18055e-015 -1.90833e-014
rhumerus -34.6634 -1.25204 -80.8275
rradius 32.8698
rwrist -5.88335
rhand -15.8494 -18.2654
rfingers 7.12502
rthumb 10.3454 -47.9909
lclavicle -3.18055e-015 -1.90833e-014
lhumerus -34.2073 -17.0561 89.3804
lradius 31.065
lwrist 43.0467
lhand -26.9328 -2.10932
lfingers 7.12502
lthumb -0.355159 27.8701
rfemur -32.0844 14.3229 26.0578
rtibia 26.7868
rfoot -19.1437 -10.9628
rtoes -6.80673
lfemur -54.8843 -8.62294 -9.21092
ltibia 38.2123
lfoot -9.66651 3.09704
ltoes -13.879
56
root 6.61818 15.5787 20.5553 -153.059 -3.12989 -174.037
lowerback -14.7585 0.119247 -1.56443
upperback -3.48724 -0.0674144 0.644313
thorax 4.57658 -0.233986 1.53562
lowerneck -11.9423 6.76963 6.18423
upperneck 27.5264 6.69818 -0.447924
head 11.1287 3.06374 -0.438187
rclavicle 7.95139e-016 -2.22639e-014
rhumerus -34.8863 -1.24911 -80.8378
rradius 33.0261
rwrist -5.83319
rhand -15.7325 -18.2582
rfingers 7.12502
rthumb 10.4582 -47.9781
lclavicle 7.95139e-016 -2.22639e-014
lhumerus -33.9526 -17.2482 89.2374
lradius 31.2556
lwrist 43.0983
lhand -26.8777 -2.15711
lfingers 7.12502
lthumb -0.301992 27.8224
rfemur -32.0118 14.7862 25.8736
rtibia 26.7584
rfoot -19.1085 -11.283
rtoes -6.98185
lfemur -54.8158 -8.23916 -9.46673
ltibia 38.3788
lfoot -9.95509 2.85053
ltoes -14.308
57
root 6.59927 15.5777 20.5139 -152.923 -2.95539 -173.996
lowerback -14.5496 0.0331849 -2.29245
upperback -3.43656 -0.05845 0.569009
thorax 4.51376 -0.230353 1.87048
lowerneck -11.9255 6.62673 6.16175
upperneck 27.3673 6.42426 -0.16227
head 11.044 2.97404 -0.370578
rclavicle 7.7526e-015 7.95139e-016
rhumerus -35.1182 -1.24585 -80.8374
rradius 33.2003
rwrist -5.80435
rhand -15.6092 -18.2238
rfingers 7.12502
rthumb 10.5772 -47.9377
lclavicle 7.7526e-015 7.95139e-016
lhumerus -33.6865 -17.4131 89.0764
lradius 31.4671
lwrist 43.135
lhand -26.8218 -2.21954
lfingers 7.12502
lthumb -0.247937 27.7601
rfemur -32.0052 15.2566 25.6821
rtibia 26.7317
rfoot -19.0519 -11.6089
rtoes -7.12631
lfemur -54.8139 -7.85106 -9.70226
ltibia 38.5446
lfoot -10.2336 2.5936
ltoes -14.6595
